<?xml version="1.0" ?>
<!-- Uploaded to: SVG Repo, www.svgrepo.com, Generator: SVG Repo Mixer Tools -->
<svg width="800px" height="800px" viewBox="0 0 32 32" xmlns="http://www.w3.org/2000/svg">
<defs>
<style>.cls-1{fill:#00df8e;}.cls-2{fill:#bfffc8;}</style>
</defs>
<title/>
<g id="fill">
<path class="cls-1" d="M24.67,2.67H7.33A5.33,5.33,0,0,0,2,8v8a5.33,5.33,0,0,0,5.33,5.33h8.45l-1.78,8,8-8h2.67A5.33,5.33,0,0,0,30,16V8A5.33,5.33,0,0,0,24.67,2.67Z"/>
<path class="cls-2" d="M9.33,14.33A2.33,2.33,0,1,1,11.67,12,2.33,2.33,0,0,1,9.33,14.33Zm0-2.66a.33.33,0,1,0,.34.33A.33.33,0,0,0,9.33,11.67Z"/>
<path class="cls-2" d="M16,14.33A2.33,2.33,0,1,1,18.33,12,2.33,2.33,0,0,1,16,14.33Zm0-2.66a.33.33,0,1,0,.33.33A.33.33,0,0,0,16,11.67Z"/>
<path class="cls-2" d="M22.67,14.33A2.33,2.33,0,1,1,25,12,2.33,2.33,0,0,1,22.67,14.33Zm0-2.66A.33.33,0,1,0,23,12,.34.34,0,0,0,22.67,11.67Z"/>
</g>
</svg>